<svg width="28" height="28" viewBox="0 0 28 28" fill="none" xmlns="http://www.w3.org/2000/svg">
<path d="M27.414 26.0001L20.448 19.0341C22.2626 16.8556 23.1675 14.0614 22.9744 11.2327C22.7813 8.40406 21.5051 5.75874 19.4112 3.84705C17.3174 1.93536 14.5672 0.904499 11.7327 0.968911C8.89814 1.03332 6.19757 2.18805 4.19275 4.19287C2.18793 6.1977 1.0332 8.89826 0.968789 11.7328C0.904377 14.5673 1.93524 17.3175 3.84693 19.4114C5.75861 21.5052 8.40394 22.7814 11.2326 22.9745C14.0613 23.1676 16.8555 22.2627 19.034 20.4481L26 27.4141L27.414 26.0001ZM2.99999 12.0001C2.99999 10.2201 3.52783 8.48003 4.51677 6.99998C5.5057 5.51994 6.91131 4.36639 8.55584 3.6852C10.2004 3.00401 12.01 2.82578 13.7558 3.17305C15.5016 3.52031 17.1053 4.37748 18.364 5.63615C19.6226 6.89483 20.4798 8.49847 20.8271 10.2443C21.1743 11.9901 20.9961 13.7997 20.3149 15.4443C19.6337 17.0888 18.4802 18.4944 17.0001 19.4833C15.5201 20.4723 13.78 21.0001 12 21.0001C9.61394 20.9972 7.32644 20.0481 5.63925 18.3609C3.95205 16.6737 3.0029 14.3862 2.99999 12.0001V12.0001Z" fill="#858585"/>
</svg>
